<svg width="151" height="32" viewBox="0 0 151 32" fill="none" xmlns="http://www.w3.org/2000/svg">
<path d="M5.276 31.888C3.956 31.888 2.9 31.528 2.108 30.808C1.34 30.088 0.956 29.212 0.956 28.18C0.956 27.292 1.208 26.62 1.712 26.164C2.216 25.708 2.78 25.48 3.404 25.48C4.052 25.48 4.592 25.708 5.024 26.164C5.456 26.596 5.672 27.124 5.672 27.748C5.672 28.252 5.564 28.66 5.348 28.972C5.132 29.308 5.024 29.644 5.024 29.98C5.024 30.22 5.108 30.4 5.276 30.52C5.444 30.64 5.648 30.7 5.888 30.7C6.32 30.7 6.716 30.496 7.076 30.088C7.46 29.68 7.76 28.96 7.976 27.928C8.216 26.872 8.336 25.396 8.336 23.5V0.856H13.16V23.5C13.16 24.628 12.944 25.696 12.512 26.704C12.08 27.712 11.492 28.6 10.748 29.368C10.004 30.16 9.152 30.772 8.192 31.204C7.256 31.66 6.284 31.888 5.276 31.888ZM3.656 1.756V0.856H16.4V1.756H3.656ZM27.1544 28.432C25.9784 28.432 24.8744 28.192 23.8424 27.712C22.8344 27.232 21.9344 26.596 21.1424 25.804C20.3744 24.988 19.7744 24.076 19.3424 23.068C18.9104 22.036 18.6944 20.98 18.6944 19.9C18.6944 18.82 18.9104 17.776 19.3424 16.768C19.7744 15.736 20.3744 14.824 21.1424 14.032C21.9344 13.216 22.8344 12.568 23.8424 12.088C24.8744 11.608 25.9784 11.368 27.1544 11.368C28.3304 11.368 29.4224 11.608 30.4304 12.088C31.4624 12.568 32.3624 13.216 33.1304 14.032C33.9224 14.824 34.5344 15.736 34.9664 16.768C35.3984 17.776 35.6144 18.82 35.6144 19.9C35.6144 20.98 35.3984 22.036 34.9664 23.068C34.5344 24.076 33.9224 24.988 33.1304 25.804C32.3624 26.596 31.4624 27.232 30.4304 27.712C29.4224 28.192 28.3304 28.432 27.1544 28.432ZM27.1544 27.352C28.0664 27.352 28.7984 27.148 29.3504 26.74C29.9024 26.332 30.2984 25.6 30.5384 24.544C30.8024 23.464 30.9344 21.916 30.9344 19.9C30.9344 17.884 30.8024 16.336 30.5384 15.256C30.2984 14.176 29.9024 13.444 29.3504 13.06C28.7984 12.652 28.0664 12.448 27.1544 12.448C26.2424 12.448 25.5104 12.652 24.9584 13.06C24.4064 13.444 23.9984 14.176 23.7344 15.256C23.4944 16.336 23.3744 17.884 23.3744 19.9C23.3744 21.916 23.4944 23.464 23.7344 24.544C23.9984 25.6 24.4064 26.332 24.9584 26.74C25.5104 27.148 26.2424 27.352 27.1544 27.352ZM51.1493 27.46V15.292C51.1493 14.38 50.9453 13.708 50.5373 13.276C50.1533 12.82 49.6013 12.592 48.8813 12.592C48.0653 12.592 47.3093 12.916 46.6133 13.564C45.9413 14.212 45.4013 15.1 44.9933 16.228C44.6093 17.332 44.4173 18.592 44.4173 20.008L43.6973 14.788H44.5613C45.0893 13.804 45.7973 12.988 46.6853 12.34C47.5733 11.692 48.7253 11.368 50.1413 11.368C51.6053 11.368 52.7933 11.752 53.7053 12.52C54.6413 13.264 55.1093 14.188 55.1093 15.292V27.46H51.1493ZM37.6133 28V27.1H46.7573V28H37.6133ZM48.4133 28V27.1H57.5573V28H48.4133ZM40.4573 27.46V1.432H44.4173V27.46H40.4573ZM37.6133 1.756V0.856H44.4173V1.756H37.6133ZM72.3066 27.46V15.292C72.3066 13.492 71.5866 12.592 70.1466 12.592C69.3546 12.592 68.6226 12.916 67.9506 13.564C67.3026 14.212 66.7746 15.1 66.3666 16.228C65.9826 17.332 65.7906 18.592 65.7906 20.008L65.0706 14.788H65.9346C66.4386 13.804 67.1226 12.988 67.9866 12.34C68.8746 11.692 70.0146 11.368 71.4066 11.368C72.8226 11.368 73.9866 11.752 74.8986 12.52C75.8106 13.264 76.2666 14.188 76.2666 15.292V27.46H72.3066ZM58.9866 28V27.1H68.1306V28H58.9866ZM61.8306 27.46V12.376H65.7906V27.46H61.8306ZM69.5706 28V27.1H78.7146V28H69.5706ZM58.9866 12.7V11.8H65.7906V12.7H58.9866ZM86.5179 28V27.1H98.5779C100.066 27.1 101.326 26.92 102.358 26.56C103.39 26.2 104.23 25.564 104.878 24.652C105.526 23.716 105.994 22.42 106.282 20.764C106.594 19.108 106.75 16.996 106.75 14.428C106.75 11.86 106.594 9.748 106.282 8.092C105.994 6.436 105.514 5.152 104.842 4.24C104.194 3.304 103.354 2.656 102.322 2.296C101.29 1.936 100.03 1.756 98.5419 1.756H86.5179V0.856H99.6939C101.494 0.856 103.162 1.228 104.698 1.972C106.258 2.692 107.626 3.688 108.802 4.96C109.978 6.232 110.89 7.684 111.538 9.316C112.186 10.948 112.51 12.652 112.51 14.428C112.51 16.204 112.174 17.908 111.502 19.54C110.854 21.172 109.942 22.624 108.766 23.896C107.614 25.168 106.258 26.176 104.698 26.92C103.138 27.64 101.458 28 99.6579 28H86.5179ZM90.4779 27.46V0.856H95.3019V27.46H90.4779ZM123.862 28.432C122.686 28.432 121.582 28.192 120.55 27.712C119.542 27.232 118.642 26.596 117.85 25.804C117.082 24.988 116.482 24.076 116.05 23.068C115.618 22.036 115.402 20.98 115.402 19.9C115.402 18.82 115.618 17.776 116.05 16.768C116.482 15.736 117.082 14.824 117.85 14.032C118.642 13.216 119.542 12.568 120.55 12.088C121.582 11.608 122.686 11.368 123.862 11.368C125.038 11.368 126.13 11.608 127.138 12.088C128.17 12.568 129.07 13.216 129.838 14.032C130.63 14.824 131.242 15.736 131.674 16.768C132.106 17.776 132.322 18.82 132.322 19.9C132.322 20.98 132.106 22.036 131.674 23.068C131.242 24.076 130.63 24.988 129.838 25.804C129.07 26.596 128.17 27.232 127.138 27.712C126.13 28.192 125.038 28.432 123.862 28.432ZM123.862 27.352C124.774 27.352 125.506 27.148 126.058 26.74C126.61 26.332 127.006 25.6 127.246 24.544C127.51 23.464 127.642 21.916 127.642 19.9C127.642 17.884 127.51 16.336 127.246 15.256C127.006 14.176 126.61 13.444 126.058 13.06C125.506 12.652 124.774 12.448 123.862 12.448C122.95 12.448 122.218 12.652 121.666 13.06C121.114 13.444 120.706 14.176 120.442 15.256C120.202 16.336 120.082 17.884 120.082 19.9C120.082 21.916 120.202 23.464 120.442 24.544C120.706 25.6 121.114 26.332 121.666 26.74C122.218 27.148 122.95 27.352 123.862 27.352ZM143.465 28.432C142.313 28.432 141.221 28.204 140.189 27.748C139.181 27.268 138.293 26.632 137.525 25.84C136.757 25.024 136.157 24.112 135.725 23.104C135.293 22.072 135.077 21.004 135.077 19.9C135.077 18.436 135.413 17.056 136.085 15.76C136.781 14.464 137.741 13.408 138.965 12.592C140.189 11.776 141.629 11.368 143.285 11.368C144.581 11.368 145.745 11.668 146.777 12.268C147.833 12.844 148.661 13.66 149.261 14.716C149.861 15.772 150.161 16.984 150.161 18.352V18.568H138.389V17.668H145.985V15.616C145.985 13.432 145.025 12.34 143.105 12.34C142.313 12.34 141.665 12.58 141.161 13.06C140.681 13.516 140.321 14.296 140.081 15.4C139.865 16.504 139.757 18.004 139.757 19.9C139.757 21.844 139.877 23.356 140.117 24.436C140.357 25.516 140.753 26.272 141.305 26.704C141.881 27.136 142.637 27.352 143.573 27.352C144.845 27.352 145.949 27.028 146.885 26.38C147.821 25.732 148.613 24.604 149.261 22.996H150.269C149.789 24.676 148.937 26.008 147.713 26.992C146.513 27.952 145.097 28.432 143.465 28.432Z" fill="#343433"/>
</svg>
